# xmcd
#
# Track frame offsets: 
#        150
#        25530
#        45680
#        65370
#        84985
#        109020
#        132290
#        146213
#
# Disc length: 2247 seconds
#
# Revision: 1
# Processed by: cddbd v1.5.2PL0 Copyright (c) Steve Scherf et al.
# Submitted via: ExactAudioCopy v0.99pb5
#
DISCID=6508c508
DTITLE=Theodis Ealey - Headed Back To Hurtsville
DYEAR=1992
DGENRE=Blues
TTITLE0=Old Time Blues
TTITLE1=Headed Back To Hurtsville, Again
TTITLE2=I'm The Man You Need
TTITLE3=Life After Love
TTITLE4=I Feel Good About Myself
TTITLE5=I Wanna Be Your Friend
TTITLE6=Love Is Necessary
TTITLE7=Lil' Brown Eyes
EXTD=YEAR: 1992
EXTT0=
EXTT1=
EXTT2=
EXTT3=
EXTT4=
EXTT5=
EXTT6=
EXTT7=
PLAYORDER=
